# AST/ASF file generated using VICON BodyLanguage
# -----------------------------------------------
:version 1.10
:name VICON
:units
  mass 1.0
  length 0.45
  angle deg
:documentation
   .ast/.asf automatically generated from VICON data using
   VICON BodyBuilder and BodyLanguage model FoxedUp or BRILLIANT.MOD
:root
   order TX TY TZ RX RY RZ
   axis XYZ
   position 0 0 0  
   orientation 0 0 0 
:bonedata
  begin
     id 1 
     name lhipjoint
     direction 0.623529 -0.717805 0.309788 
     length 2.23224 
     axis 0 0 0  XYZ
  end
  begin
     id 2 
     name lfemur
     direction 0.34202 -0.939693 0  
     length 7.11402  
     axis 0 0 20  XYZ
    dof rx ry rz
    limits (-160.0 20.0)
           (-70.0 70.0)
           (-60.0 70.0)
  end
  begin
     id 3 
     name ltibia
     direction 0.34202 -0.939693 0   
     length 6.78496   
     axis 0 0 20   XYZ
    dof rx
    limits (-10.0 170.0)
  end
  begin
     id 4 
     name lfoot
     direction 0.125078 -0.343648 0.930732   
     length 1.84054   
     axis -90 7.62852e-016 20   XYZ
    dof rx rz
    limits (-45.0 90.0)
           (-70.0 20.0)
  end
  begin
     id 5 
     name ltoes
     direction 1.53565e-011 -4.21893e-011 1   
     length 0.916474   
     axis -90 7.62852e-016 20   XYZ
    dof rx
    limits (-90.0 20.0)
  end
  begin
     id 6 
     name rhipjoint
     direction -0.564688 -0.757748 0.327026   
     length 2.11457  
     axis 0 0 0  XYZ 
  end
  begin
     id 7 
     name rfemur
     direction -0.34202 -0.939693 0   
     length 7.14609   
     axis 0 0 -20   XYZ
    dof rx ry rz
    limits (-160.0 20.0)
           (-70.0 70.0)
           (-70.0 60.0)
  end
  begin
     id 8 
     name rtibia
     direction -0.34202 -0.939693 0   
     length 6.78101   
     axis 0 0 -20   XYZ
    dof rx
    limits (-10.0 170.0)
 end
 begin
     id 9 
     name rfoot
     direction -0.0992671 -0.272734 0.956955   
     length 1.96168  
     axis -90 -7.62852e-016 -20   XYZ
    dof rx rz
    limits (-45.0 90.0)
           (-20.0 70.0)
  end
  begin
     id 10 
     name rtoes
     direction -1.5356e-011 -4.21891e-011 1   
     length 0.982933   
     axis -90 -7.62852e-016 -20   XYZ
    dof rx
    limits (-90.0 20.0)
  end
  begin
     id 11 
     name lowerback
     direction -0.00596953 0.998668 0.0512524   
     length 1.87557   
     axis 0 0 0   XYZ
    dof rx ry rz
    limits (-20.0 45.0)
           (-30.0 30.0)
           (-30.0 30.0)
  end
  begin
     id 12 
     name upperback
     direction 0.00584879 0.999652 0.0257308   
     length 1.87883   
     axis 0 0 0   XYZ
    dof rx ry rz
    limits (-20.0 45.0)
           (-30.0 30.0)
           (-30.0 30.0)
  end
  begin
     id 13 
     name thorax
     direction 0.010104 0.999947 0.00178881   
     length 1.87779   
     axis 0 0 0   XYZ
    dof rx ry rz
    limits (-20.0 45.0)
           (-30.0 30.0)
           (-30.0 30.0)
  end
  begin
     id 14 
     name lowerneck
     direction 0.0120771 0.995934 -0.0892773   
     length 1.40897   
     axis 0 0 0   XYZ
    dof rx ry rz
    limits (-20.0 45.0)
           (-30.0 30.0)
           (-30.0 30.0)
  end
  begin
     id 15 
     name upperneck
     direction -0.030568 0.999465 -0.0116366   
     length 1.38661   
     axis 0 0 0   XYZ
    dof rx ry rz
    limits (-20.0 45.0)
           (-30.0 30.0)
           (-30.0 30.0)
  end
  begin
     id 16
     name head
     direction -0.0170715 0.999854 -0.00104426  
     length 1.47052  
     axis 0 0 0   XYZ
    dof rx ry rz
    limits (-20.0 45.0)
           (-30.0 30.0)
           (-30.0 30.0)
  end
  begin
     id 17 
     name lclavicle
     direction 0.977763 0.206143 0.038532  
     length 3.02424  
     axis 0 0 0   XYZ
    dof ry rz
    limits (-20.0 10.0)
           (0.0 20.0)
  end
  begin
     id 18 
     name lhumerus
     direction 1 -4.48965e-011 -2.62654e-027   
     length 4.68382   
     axis 180 -30 -90   XYZ
    dof rx ry rz
    limits (-60.0 90.0)
           (-90.0 90.0)
           (-90.0 90.0)
  end
  begin
     id 19
     name lradius
     direction 1 -4.48973e-011 -1.54954e-027   
     length 2.98124   
     axis 180 -30 -90   XYZ
    dof rx
    limits (-10.0 170.0)
  end
  begin
     id 20
     name lwrist
     direction 1 -4.48959e-011 7.20928e-028   
     length 1.49062   
     axis -5.52449e-016 90 90   XYZ
    dof ry
    limits (-180.0 0.0)
 end
  begin
     id 21 
     name lhand
     direction 1 -4.48971e-011 1.44186e-027   
     length 0.707595   
     axis -9.20027e-016 90 90   XYZ
    dof rx rz
    limits (-90.0 90.0)
           (-45.0 45.0)
  end
  begin
     id 22 
     name lfingers
     direction 1 -4.48985e-011 2.88371e-027   
     length 0.570481   
     axis -1.84005e-015 90 90   XYZ
    dof rx
    limits (0.0 90.0)
  end
  begin
     id 23
     name lthumb
     direction 0.707107 -6.34929e-011 0.707107   
     length 0.819101   
     axis -90 45 2.85299e-015   XYZ
    dof rx rz
    limits (-45.0 45.0)
           (-45.0 45.0)
  end
  begin
     id 24 
     name rclavicle
     direction -0.958661 0.284411 -0.00895327   
     length 3.11921  
     axis 0 0 0   XYZ 
    dof ry rz
    limits (-10.0 20.0)
           (-20.0 0.0)
  end
  begin
     id 25 
     name rhumerus
     direction -1 -4.48963e-011 -4.22193e-027  
     length 4.75876   
     axis 180 30 90   XYZ
    dof rx ry rz
    limits (-90.0 60.0)
           (-90.0 90.0)
           (-90.0 90.0)
  end
  begin
     id 26 
     name rradius
     direction -1 -4.48968e-011 -1.07616e-027   
     length 2.93293   
     axis 180 30 90   XYZ
    dof rx
    limits (-10.0 170.0)
  end
  begin
     id 27 
     name rwrist
     direction -1 -4.48965e-011 7.20928e-028   
     length 1.46647   
     axis -5.52449e-016 -90 -90   XYZ
    dof ry
    limits (-180.0 0.0)
  end
  begin
     id 28
     name rhand
     direction -1 -4.48971e-011 1.44186e-027   
     length 0.831748   
     axis -9.20027e-016 -90 -90   XYZ
    dof rx rz
    limits (-90.0 90.0)
           (-45.0 45.0)
  end
  begin
     id 29
     name rfingers
     direction -1 -4.48961e-011 2.88371e-027   
     length 0.670577   
     axis -1.84005e-015 -90 -90   XYZ
    dof rx
    limits (0.0 90.0)
  end
  begin
     id 30
     name rthumb
     direction -0.707107 -6.34929e-011 0.707107   
     length 0.962818   
     axis -90 -45 -2.85299e-015   XYZ
    dof rx rz
    limits (-45.0 45.0)
           (-45.0 45.0)
  end
:hierarchy
  begin
    root lhipjoint rhipjoint lowerback
    lhipjoint lfemur
    lfemur ltibia
    ltibia lfoot
    lfoot ltoes
    rhipjoint rfemur
    rfemur rtibia
    rtibia rfoot
    rfoot rtoes
    lowerback upperback
    upperback thorax
    thorax lowerneck lclavicle rclavicle
    lowerneck upperneck
    upperneck head
    lclavicle lhumerus
    lhumerus lradius
    lradius lwrist
    lwrist lhand lthumb
    lhand lfingers
    rclavicle rhumerus
    rhumerus rradius
    rradius rwrist
    rwrist rhand rthumb
    rhand rfingers
  end

#!OML:ASF E:\id_vita\Project 1\Capture day 1\Session 1\Female.ASF
:FULLY-SPECIFIED
:DEGREES
205
root -6.29182 16.3987 0.226185 381.48 83.4543 363.251
lowerback -11.8872 0.344737 -3.73481
upperback -4.12348 1.02907 0.192515
thorax 2.27961 0.594779 2.44712
lowerneck -0.195282 0.241094 -3.204
upperneck 16.9829 0.281742 4.27638
head 5.11164 0.366236 1.89448
rclavicle -1.34614e-014 8.79622e-015
rhumerus -54.2642 -42.8403 -50.4341
rradius 12.6493
rwrist 45.8725
rhand -15.1724 7.97966
rfingers 7.12502
rthumb 10.9985 -21.7122
lclavicle -1.34614e-014 8.79622e-015
lhumerus -23.9169 14.8529 87.1043
lradius 35.7746
lwrist -13.5639
lhand -13.1195 24.1149
lfingers 7.12502
lthumb 12.978 53.6912
rfemur -38.5384 0.452299 19.4454
rtibia 65.9362
rfoot -6.95852 -5.30969
rtoes -5.28543
lfemur -28.2145 -5.91055 -26.0244
ltibia 30.5659
lfoot -24.9809 4.2821
ltoes 10.2698
206
root -6.13693 16.4135 0.231062 383.018 83.9391 365.017
lowerback -11.9044 0.0925363 -3.83682
upperback -3.92379 0.701899 0.225311
thorax 2.51777 0.420907 2.49701
lowerneck -0.155612 0.280585 -3.19043
upperneck 16.8273 0.326842 4.3003
head 5.05489 0.386826 1.8994
rclavicle 1.70831e-015 2.73329e-015
rhumerus -56.4754 -44.2099 -47.1583
rradius 12.3172
rwrist 48.5955
rhand -14.7642 7.73748
rfingers 7.12502
rthumb 11.3921 -21.9331
lclavicle 1.70831e-015 2.73329e-015
lhumerus -22.9345 14.1382 87.5108
lradius 36.5267
lwrist -12.9832
lhand -12.7309 24.4278
lfingers 7.12502
lthumb 13.3526 53.98
rfemur -39.3475 0.716701 19.3261
rtibia 64.8693
rfoot -7.74485 -5.90859
rtoes -5.42687
lfemur -27.479 -6.54771 -26.0151
ltibia 30.6303
lfoot -25.3827 3.75011
ltoes 12.2116
207
root -6.00527 16.3859 0.239547 382.472 83.9385 363.922
lowerback -13.1906 -0.00195538 -3.73735
upperback -3.45611 0.619014 0.249803
thorax 3.71522 0.344806 2.47554
lowerneck -0.353751 0.38407 -3.04209
upperneck 16.2212 0.441763 4.32338
head 4.89682 0.439536 1.87965
rclavicle -1.02436e-014 1.2921e-014
rhumerus -59.6665 -47.3486 -41.9185
rradius 11.7412
rwrist 53.2781
rhand -14.4319 7.77458
rfingers 7.12502
rthumb 11.7126 -21.878
lclavicle -1.02436e-014 1.2921e-014
lhumerus -21.1188 13.6194 88.0035
lradius 36.9888
lwrist -12.7898
lhand -12.2409 24.5454
lfingers 7.12502
lthumb 13.8248 54.066
rfemur -41.2938 1.53062 19.3138
rtibia 63.8418
rfoot -8.09892 -6.54056
rtoes -6.23364
lfemur -27.512 -6.5997 -25.9366
ltibia 30.7655
lfoot -25.6148 4.34196
ltoes 9.20244
208
root -5.83997 16.389 0.240708 382.216 84.3164 363.966
lowerback -13.6961 -0.207131 -3.63349
upperback -2.87785 0.341782 0.325162
thorax 4.61882 0.17352 2.45933
lowerneck -0.538254 0.477694 -2.94911
upperneck 15.7202 0.553691 4.31304
head 4.7698 0.48787 1.86008
rclavicle -3.50979e-015 3.926e-015
rhumerus -62.5557 -49.3438 -37.5131
rradius 11.4139
rwrist 56.6515
rhand -14.1107 7.55869
rfingers 7.12502
rthumb 12.0224 -22.076
lclavicle -3.50979e-015 3.926e-015
lhumerus -19.6711 13.2194 88.4218
lradius 37.4564
lwrist -12.6096
lhand -11.5238 24.8348
lfingers 7.12502
lthumb 14.5158 54.307
rfemur -41.7881 1.92662 19.2921
rtibia 62.4289
rfoot -8.46646 -7.34734
rtoes -7.20952
lfemur -26.8551 -7.16723 -25.8409
ltibia 31.0121
lfoot -25.9037 4.06641
ltoes 9.89683
209
root -5.68806 16.381 0.2458 381.086 84.2476 362.631
lowerback -13.6232 -0.260763 -3.6072
upperback -3.10378 0.262654 0.427991
thorax 4.346 0.146473 2.53728
lowerneck -0.631856 0.483807 -2.93436
upperneck 15.8773 0.56372 4.30319
head 4.83359 0.495863 1.85735
rclavicle 6.02255e-015 -2.48481e-016
rhumerus -64.6729 -49.4666 -34.7553
rradius 11.2927
rwrist 57.9934
rhand -13.8446 7.17211
rfingers 7.12502
rthumb 12.279 -22.4474
lclavicle 6.02255e-015 -2.48481e-016
lhumerus -19.246 12.7445 88.5987
lradius 38.1411
lwrist -12.5387
lhand -11.2828 24.739
lfingers 7.12502
lthumb 14.748 54.1944
rfemur -43.0318 2.67591 19.213
rtibia 60.945
rfoot -8.63273 -7.86999
rtoes -7.62642
lfemur -26.5489 -7.15202 -25.7998
ltibia 31.1497
lfoot -26.392 4.2101
ltoes 11.6576
210
root -5.5373 16.3781 0.254887 379.97 84.1735 361.183
lowerback -14.0216 -0.308198 -3.63398
upperback -3.1264 0.218251 0.523875
thorax 4.54221 0.122223 2.64921
lowerneck -0.825224 0.485719 -2.89922
upperneck 15.9095 0.561377 4.31605
head 4.8762 0.497718 1.85673
rclavicle 6.50088e-015 -1.60022e-014
rhumerus -65.2112 -49.2199 -33.9821
rradius 11.2458
rwrist 57.9378
rhand -13.616 6.62382
rfingers 7.12502
rthumb 12.4993 -22.9824
lclavicle 6.50088e-015 -1.60022e-014
lhumerus -18.5035 12.2434 88.8395
lradius 38.8454
lwrist -12.611
lhand -11.2933 24.5019
lfingers 7.12502
lthumb 14.738 53.958
rfemur -44.3344 3.44065 19.1281
rtibia 59.1881
rfoot -8.58867 -8.15074
rtoes -7.43813
lfemur -26.2134 -7.13575 -25.7327
ltibia 31.0567
lfoot -26.6633 4.6997
ltoes 11.2464
211
root -5.38242 16.3807 0.261879 380.282 84.5726 361.468
lowerback -14.3293 -0.573739 -3.75661
upperback -2.95959 -0.110572 0.638199
thorax 4.91021 -0.0535885 2.78312
lowerneck -0.823391 0.583092 -2.91286
upperneck 15.6746 0.674267 4.42676
head 4.7984 0.55344 1.89515
rclavicle -5.23363e-015 -1.39149e-014
rhumerus -65.6331 -49.088 -33.2711
rradius 11.2316
rwrist 58.029
rhand -13.3992 6.33629
rfingers 7.12502
rthumb 12.7084 -23.257
lclavicle -5.23363e-015 -1.39149e-014
lhumerus -17.6235 11.8732 89.0559
lradius 39.2079
lwrist -12.2131
lhand -10.8962 24.4005
lfingers 7.12502
lthumb 15.1205 53.8282
rfemur -45.1106 3.74685 19.0465
rtibia 57.2767
rfoot -8.55316 -8.41529
rtoes -7.27321
lfemur -25.5008 -7.4828 -25.7259
ltibia 30.7937
lfoot -26.6986 4.99895
ltoes 10.5915
212
root -5.22292 16.3789 0.262199 383.096 85.5978 364.719
lowerback -13.0135 -1.02155 -3.9756
upperback -3.45138 -0.735178 0.809989
thorax 3.72512 -0.329033 2.9802
lowerneck -0.587604 0.630828 -3.00812
upperneck 16.1058 0.743702 4.48434
head 4.88772 0.594166 1.93616
rclavicle -1.28864e-014 -7.47617e-015
rhumerus -67.4322 -48.1842 -31.1083
rradius 11.2721
rwrist 58.7114
rhand -13.2842 6.65179
rfingers 7.12502
rthumb 12.8192 -22.9346
lclavicle -1.28864e-014 -7.47617e-015
lhumerus -17.7999 11.5909 89.1189
lradius 39.663
lwrist -12.8637
lhand -9.29983 25.6974
lfingers 7.12502
lthumb 16.6578 55.0026
rfemur -45.1469 3.49224 18.9268
rtibia 55.1975
rfoot -8.61555 -8.79865
rtoes -8.06074
lfemur -24.1505 -8.10841 -25.8709
ltibia 30.3487
lfoot -26.7463 4.81431
ltoes 10.4303
213
root -5.07083 16.3675 0.267701 381.673 85.7876 363.398
lowerback -11.9866 -1.09578 -4.06478
upperback -4.00267 -0.868541 1.01122
thorax 2.60259 -0.356428 3.22859
lowerneck -0.597206 0.579673 -3.10813
upperneck 16.6416 0.693909 4.44874
head 5.05653 0.572908 1.94705
rclavicle -6.89845e-015 6.55989e-015
rhumerus -67.7641 -46.7037 -30.8913
rradius 11.3885
rwrist 57.7854
rhand -13.1962 6.78701
rfingers 7.12502
rthumb 12.904 -22.794
lclavicle -6.89845e-015 6.55989e-015
lhumerus -17.8789 10.9818 89.3506
lradius 39.966
lwrist -12.6948
lhand -9.6322 25.7384
lfingers 7.12502
lthumb 16.3378 55.0702
rfemur -45.5856 4.02514 18.844
rtibia 52.9743
rfoot -8.44882 -8.93854
rtoes -7.83728
lfemur -23.1414 -8.224 -25.8503
ltibia 29.8512
lfoot -26.6722 5.15954
ltoes 9.40473
214
root -4.91462 16.3652 0.275646 381.194 86.0867 363.055
lowerback -10.7696 -1.15989 -4.25139
upperback -4.69446 -0.981958 1.21468
thorax 1.23259 -0.35951 3.54398
lowerneck -0.351705 0.492272 -3.26465
upperneck 17.1306 0.596346 4.43985
head 5.16984 0.52617 1.9718
rclavicle -1.06319e-014 1.55052e-014
rhumerus -65.8254 -43.5861 -34.2882
rradius 11.8261
rwrist 53.635
rhand -13.0633 6.15474
rfingers 7.12502
rthumb 13.0321 -23.4182
lclavicle -1.06319e-014 1.55052e-014
lhumerus -18.303 10.3914 89.6423
lradius 40.2587
lwrist -12.6016
lhand -10.0957 25.3355
lfingers 7.12502
lthumb 15.8915 54.7035
rfemur -45.9319 4.46352 18.7208
rtibia 50.6018
rfoot -8.38156 -8.95493
rtoes -6.02529
lfemur -22.0636 -8.20396 -25.9047
ltibia 29.3169
lfoot -26.6056 5.30195
ltoes 8.31969
215
root -4.75603 16.3546 0.282742 382.461 86.3277 364.354
lowerback -11.7927 -1.34177 -4.2261
upperback -3.99162 -1.19061 1.12827
thorax 2.54093 -0.515894 3.39833
lowerneck -0.457942 0.569004 -3.09462
upperneck 16.3658 0.662261 4.52782
head 4.94846 0.5572 1.96352
rclavicle -1.11444e-014 7.35503e-015
rhumerus -64.0536 -43.217 -36.7666
rradius 12.117
rwrist 51.6329
rhand -13.0613 5.60084
rfingers 7.12502
rthumb 13.0341 -23.9719
lclavicle -1.11444e-014 7.35503e-015
lhumerus -16.4365 10.1599 89.683
lradius 39.9542
lwrist -12.8722
lhand -10.1241 24.4777
lfingers 7.12502
lthumb 15.8641 53.8478
rfemur -46.4061 4.84157 18.4844
rtibia 48.0592
rfoot -8.37164 -8.77466
rtoes -5.55528
lfemur -21.1536 -8.36136 -26.036
ltibia 28.8456
lfoot -26.4934 5.50621
ltoes 7.94469
